<svg width="1024" height="1024" viewBox="0 0 1024 1024" fill="none" xmlns="http://www.w3.org/2000/svg">
<path d="M512.2 667.629C598.041 667.629 667.629 598.041 667.629 512.2C667.629 426.359 598.041 356.771 512.2 356.771C426.359 356.771 356.771 426.359 356.771 512.2C356.771 598.041 426.359 667.629 512.2 667.629Z" stroke="white" stroke-width="90" stroke-linecap="round" stroke-linejoin="round"/>
<path d="M512.2 356.771V108.086M667.629 916.314V823.057H791.972C808.46 823.057 824.274 816.507 835.933 804.848C847.593 793.188 854.143 777.375 854.143 760.886V512.2C854.155 449.164 836.741 387.351 803.827 333.59C770.912 279.829 723.777 236.213 667.629 207.56M356.772 207.56C300.6 236.196 253.44 279.805 220.502 333.567C187.565 387.329 170.133 449.151 170.133 512.2C170.133 575.25 187.565 637.071 220.502 690.833C253.44 744.595 300.6 788.204 356.772 816.84V916.314" stroke="white" stroke-width="90" stroke-linejoin="round"/>
</svg>
